<svg width="182" height="48" viewBox="0 0 182 48" fill="none" xmlns="http://www.w3.org/2000/svg">
<path d="M9.1875 47H0.21875V2.1875H9.1875V24.5938L25.875 2.1875H36.0625L21.9062 21.0938L36.0625 47H25.875L16.0312 28.875L9.1875 38.0312V47ZM69.5312 29.9688C69.5312 32.4688 69.0833 34.8021 68.1875 36.9688C67.2917 39.1146 66.0729 40.9792 64.5312 42.5625C62.9896 44.125 61.1771 45.3646 59.0938 46.2812C57.0312 47.1771 54.8125 47.625 52.4375 47.625C50.0833 47.625 47.8646 47.1771 45.7812 46.2812C43.7188 45.3646 41.9062 44.125 40.3438 42.5625C38.8021 40.9792 37.5833 39.1146 36.6875 36.9688C35.7917 34.8021 35.3438 32.4688 35.3438 29.9688C35.3438 27.4271 35.7917 25.0729 36.6875 22.9062C37.5833 20.7396 38.8021 18.875 40.3438 17.3125C41.9062 15.7292 43.7188 14.4896 45.7812 13.5938C47.8646 12.6979 50.0833 12.25 52.4375 12.25C54.8125 12.25 57.0312 12.6771 59.0938 13.5312C61.1771 14.3646 62.9896 15.5625 64.5312 17.125C66.0729 18.6667 67.2917 20.5312 68.1875 22.7188C69.0833 24.8854 69.5312 27.3021 69.5312 29.9688ZM60.9375 29.9688C60.9375 28.5938 60.7083 27.3542 60.25 26.25C59.8125 25.125 59.2083 24.1667 58.4375 23.375C57.6667 22.5625 56.7604 21.9479 55.7188 21.5312C54.6979 21.0938 53.6042 20.875 52.4375 20.875C51.2708 20.875 50.1667 21.0938 49.125 21.5312C48.1042 21.9479 47.2083 22.5625 46.4375 23.375C45.6875 24.1667 45.0938 25.125 44.6562 26.25C44.2188 27.3542 44 28.5938 44 29.9688C44 31.2604 44.2188 32.4583 44.6562 33.5625C45.0938 34.6667 45.6875 35.625 46.4375 36.4375C47.2083 37.25 48.1042 37.8958 49.125 38.375C50.1667 38.8333 51.2708 39.0625 52.4375 39.0625C53.6042 39.0625 54.6979 38.8438 55.7188 38.4062C56.7604 37.9688 57.6667 37.3542 58.4375 36.5625C59.2083 35.7708 59.8125 34.8125 60.25 33.6875C60.7083 32.5625 60.9375 31.3229 60.9375 29.9688ZM82.7812 47H74.25V13.5312H76.3125L79.125 16.7812C80.5 15.5312 82.0521 14.5729 83.7812 13.9062C85.5312 13.2188 87.3542 12.875 89.25 12.875C91.2917 12.875 93.2188 13.2708 95.0312 14.0625C96.8438 14.8333 98.4271 15.9062 99.7812 17.2812C101.135 18.6354 102.198 20.2292 102.969 22.0625C103.76 23.875 104.156 25.8125 104.156 27.875V47H95.625V27.875C95.625 27 95.4583 26.1771 95.125 25.4062C94.7917 24.6146 94.3333 23.9271 93.75 23.3438C93.1667 22.7604 92.4896 22.3021 91.7188 21.9688C90.9479 21.6354 90.125 21.4688 89.25 21.4688C88.3542 21.4688 87.5104 21.6354 86.7188 21.9688C85.9271 22.3021 85.2396 22.7604 84.6562 23.3438C84.0729 23.9271 83.6146 24.6146 83.2812 25.4062C82.9479 26.1771 82.7812 27 82.7812 27.875V47ZM142.594 47H140.531L137.219 42.4062C136.406 43.1354 135.542 43.8229 134.625 44.4688C133.729 45.0938 132.781 45.6458 131.781 46.125C130.781 46.5833 129.75 46.9479 128.688 47.2188C127.646 47.4896 126.583 47.625 125.5 47.625C123.146 47.625 120.927 47.1875 118.844 46.3125C116.781 45.4167 114.969 44.1875 113.406 42.625C111.865 41.0417 110.646 39.1771 109.75 37.0312C108.854 34.8646 108.406 32.5104 108.406 29.9688C108.406 27.4479 108.854 25.1042 109.75 22.9375C110.646 20.7708 111.865 18.8958 113.406 17.3125C114.969 15.7292 116.781 14.4896 118.844 13.5938C120.927 12.6979 123.146 12.25 125.5 12.25C126.25 12.25 127.021 12.3125 127.812 12.4375C128.625 12.5625 129.406 12.7708 130.156 13.0625C130.927 13.3333 131.646 13.6979 132.312 14.1562C132.979 14.6146 133.542 15.1771 134 15.8438V0.21875H142.594V47ZM134 29.9688C134 28.8021 133.771 27.6771 133.312 26.5938C132.875 25.4896 132.271 24.5208 131.5 23.6875C130.729 22.8333 129.823 22.1562 128.781 21.6562C127.76 21.1354 126.667 20.875 125.5 20.875C124.333 20.875 123.229 21.0833 122.188 21.5C121.167 21.9167 120.271 22.5208 119.5 23.3125C118.75 24.0833 118.156 25.0312 117.719 26.1562C117.281 27.2812 117.062 28.5521 117.062 29.9688C117.062 31.1979 117.281 32.3646 117.719 33.4688C118.156 34.5729 118.75 35.5417 119.5 36.375C120.271 37.2083 121.167 37.8646 122.188 38.3438C123.229 38.8229 124.333 39.0625 125.5 39.0625C126.667 39.0625 127.76 38.8125 128.781 38.3125C129.823 37.7917 130.729 37.1146 131.5 36.2812C132.271 35.4271 132.875 34.4583 133.312 33.375C133.771 32.2708 134 31.1354 134 29.9688ZM181.469 29.9688C181.469 32.4688 181.021 34.8021 180.125 36.9688C179.229 39.1146 178.01 40.9792 176.469 42.5625C174.927 44.125 173.115 45.3646 171.031 46.2812C168.969 47.1771 166.75 47.625 164.375 47.625C162.021 47.625 159.802 47.1771 157.719 46.2812C155.656 45.3646 153.844 44.125 152.281 42.5625C150.74 40.9792 149.521 39.1146 148.625 36.9688C147.729 34.8021 147.281 32.4688 147.281 29.9688C147.281 27.4271 147.729 25.0729 148.625 22.9062C149.521 20.7396 150.74 18.875 152.281 17.3125C153.844 15.7292 155.656 14.4896 157.719 13.5938C159.802 12.6979 162.021 12.25 164.375 12.25C166.75 12.25 168.969 12.6771 171.031 13.5312C173.115 14.3646 174.927 15.5625 176.469 17.125C178.01 18.6667 179.229 20.5312 180.125 22.7188C181.021 24.8854 181.469 27.3021 181.469 29.9688ZM172.875 29.9688C172.875 28.5938 172.646 27.3542 172.188 26.25C171.75 25.125 171.146 24.1667 170.375 23.375C169.604 22.5625 168.698 21.9479 167.656 21.5312C166.635 21.0938 165.542 20.875 164.375 20.875C163.208 20.875 162.104 21.0938 161.062 21.5312C160.042 21.9479 159.146 22.5625 158.375 23.375C157.625 24.1667 157.031 25.125 156.594 26.25C156.156 27.3542 155.938 28.5938 155.938 29.9688C155.938 31.2604 156.156 32.4583 156.594 33.5625C157.031 34.6667 157.625 35.625 158.375 36.4375C159.146 37.25 160.042 37.8958 161.062 38.375C162.104 38.8333 163.208 39.0625 164.375 39.0625C165.542 39.0625 166.635 38.8438 167.656 38.4062C168.698 37.9688 169.604 37.3542 170.375 36.5625C171.146 35.7708 171.75 34.8125 172.188 33.6875C172.646 32.5625 172.875 31.3229 172.875 29.9688Z" fill="#333333"/>
</svg>
