<svg width="545" height="143" viewBox="0 0 545 143" fill="none" xmlns="http://www.w3.org/2000/svg">
<path d="M27.5625 141H0.65625V6.5625H27.5625V73.7812L77.625 6.5625H108.188L65.7188 63.2812L108.188 141H77.625L48.0938 86.625L27.5625 114.094V141ZM208.594 89.9062C208.594 97.4062 207.25 104.406 204.562 110.906C201.875 117.344 198.219 122.938 193.594 127.688C188.969 132.375 183.531 136.094 177.281 138.844C171.094 141.531 164.438 142.875 157.312 142.875C150.25 142.875 143.594 141.531 137.344 138.844C131.156 136.094 125.719 132.375 121.031 127.688C116.406 122.938 112.75 117.344 110.062 110.906C107.375 104.406 106.031 97.4062 106.031 89.9062C106.031 82.2812 107.375 75.2188 110.062 68.7188C112.75 62.2188 116.406 56.625 121.031 51.9375C125.719 47.1875 131.156 43.4688 137.344 40.7812C143.594 38.0938 150.25 36.75 157.312 36.75C164.438 36.75 171.094 38.0312 177.281 40.5938C183.531 43.0938 188.969 46.6875 193.594 51.375C198.219 56 201.875 61.5938 204.562 68.1562C207.25 74.6562 208.594 81.9062 208.594 89.9062ZM182.812 89.9062C182.812 85.7812 182.125 82.0625 180.75 78.75C179.438 75.375 177.625 72.5 175.312 70.125C173 67.6875 170.281 65.8438 167.156 64.5938C164.094 63.2812 160.812 62.625 157.312 62.625C153.812 62.625 150.5 63.2812 147.375 64.5938C144.312 65.8438 141.625 67.6875 139.312 70.125C137.062 72.5 135.281 75.375 133.969 78.75C132.656 82.0625 132 85.7812 132 89.9062C132 93.7812 132.656 97.375 133.969 100.688C135.281 104 137.062 106.875 139.312 109.312C141.625 111.75 144.312 113.688 147.375 115.125C150.5 116.5 153.812 117.188 157.312 117.188C160.812 117.188 164.094 116.531 167.156 115.219C170.281 113.906 173 112.062 175.312 109.688C177.625 107.312 179.438 104.438 180.75 101.062C182.125 97.6875 182.812 93.9688 182.812 89.9062ZM248.344 141H222.75V40.5938H228.938L237.375 50.3438C241.5 46.5938 246.156 43.7188 251.344 41.7188C256.594 39.6562 262.062 38.625 267.75 38.625C273.875 38.625 279.656 39.8125 285.094 42.1875C290.531 44.5 295.281 47.7188 299.344 51.8438C303.406 55.9062 306.594 60.6875 308.906 66.1875C311.281 71.625 312.469 77.4375 312.469 83.625V141H286.875V83.625C286.875 81 286.375 78.5312 285.375 76.2188C284.375 73.8438 283 71.7812 281.25 70.0312C279.5 68.2812 277.469 66.9062 275.156 65.9062C272.844 64.9062 270.375 64.4062 267.75 64.4062C265.062 64.4062 262.531 64.9062 260.156 65.9062C257.781 66.9062 255.719 68.2812 253.969 70.0312C252.219 71.7812 250.844 73.8438 249.844 76.2188C248.844 78.5312 248.344 81 248.344 83.625V141ZM427.781 141H421.594L411.656 127.219C409.219 129.406 406.625 131.469 403.875 133.406C401.188 135.281 398.344 136.938 395.344 138.375C392.344 139.75 389.25 140.844 386.062 141.656C382.938 142.469 379.75 142.875 376.5 142.875C369.438 142.875 362.781 141.562 356.531 138.938C350.344 136.25 344.906 132.562 340.219 127.875C335.594 123.125 331.938 117.531 329.25 111.094C326.562 104.594 325.219 97.5312 325.219 89.9062C325.219 82.3438 326.562 75.3125 329.25 68.8125C331.938 62.3125 335.594 56.6875 340.219 51.9375C344.906 47.1875 350.344 43.4688 356.531 40.7812C362.781 38.0938 369.438 36.75 376.5 36.75C378.75 36.75 381.062 36.9375 383.438 37.3125C385.875 37.6875 388.219 38.3125 390.469 39.1875C392.781 40 394.938 41.0938 396.938 42.4688C398.938 43.8438 400.625 45.5312 402 47.5312V0.65625H427.781V141ZM402 89.9062C402 86.4062 401.312 83.0312 399.938 79.7812C398.625 76.4688 396.812 73.5625 394.5 71.0625C392.188 68.5 389.469 66.4688 386.344 64.9688C383.281 63.4062 380 62.625 376.5 62.625C373 62.625 369.688 63.25 366.562 64.5C363.5 65.75 360.812 67.5625 358.5 69.9375C356.25 72.25 354.469 75.0938 353.156 78.4688C351.844 81.8438 351.188 85.6562 351.188 89.9062C351.188 93.5938 351.844 97.0938 353.156 100.406C354.469 103.719 356.25 106.625 358.5 109.125C360.812 111.625 363.5 113.594 366.562 115.031C369.688 116.469 373 117.188 376.5 117.188C380 117.188 383.281 116.438 386.344 114.938C389.469 113.375 392.188 111.344 394.5 108.844C396.812 106.281 398.625 103.375 399.938 100.125C401.312 96.8125 402 93.4062 402 89.9062ZM544.406 89.9062C544.406 97.4062 543.062 104.406 540.375 110.906C537.688 117.344 534.031 122.938 529.406 127.688C524.781 132.375 519.344 136.094 513.094 138.844C506.906 141.531 500.25 142.875 493.125 142.875C486.062 142.875 479.406 141.531 473.156 138.844C466.969 136.094 461.531 132.375 456.844 127.688C452.219 122.938 448.562 117.344 445.875 110.906C443.188 104.406 441.844 97.4062 441.844 89.9062C441.844 82.2812 443.188 75.2188 445.875 68.7188C448.562 62.2188 452.219 56.625 456.844 51.9375C461.531 47.1875 466.969 43.4688 473.156 40.7812C479.406 38.0938 486.062 36.75 493.125 36.75C500.25 36.75 506.906 38.0312 513.094 40.5938C519.344 43.0938 524.781 46.6875 529.406 51.375C534.031 56 537.688 61.5938 540.375 68.1562C543.062 74.6562 544.406 81.9062 544.406 89.9062ZM518.625 89.9062C518.625 85.7812 517.938 82.0625 516.562 78.75C515.25 75.375 513.438 72.5 511.125 70.125C508.812 67.6875 506.094 65.8438 502.969 64.5938C499.906 63.2812 496.625 62.625 493.125 62.625C489.625 62.625 486.312 63.2812 483.188 64.5938C480.125 65.8438 477.438 67.6875 475.125 70.125C472.875 72.5 471.094 75.375 469.781 78.75C468.469 82.0625 467.812 85.7812 467.812 89.9062C467.812 93.7812 468.469 97.375 469.781 100.688C471.094 104 472.875 106.875 475.125 109.312C477.438 111.75 480.125 113.688 483.188 115.125C486.312 116.5 489.625 117.188 493.125 117.188C496.625 117.188 499.906 116.531 502.969 115.219C506.094 113.906 508.812 112.062 511.125 109.688C513.438 107.312 515.25 104.438 516.562 101.062C517.938 97.6875 518.625 93.9688 518.625 89.9062Z" fill="#F4F4F4"/>
</svg>
